<?xml version="1.0" encoding="utf-8"?>
<!-- Generator: Adobe Illustrator 26.0.3, SVG Export Plug-In . SVG Version: 6.00 Build 0)  -->
<svg version="1.1" id="Layer_1" xmlns="http://www.w3.org/2000/svg" xmlns:xlink="http://www.w3.org/1999/xlink" x="0px" y="0px"
	 viewBox="0 0 512 512" style="enable-background:new 0 0 512 512;" xml:space="preserve">
<style type="text/css">
	.st0{fill:#FFFFFF;}
</style>
<path class="st0" d="M352,96c0,14.3-3.1,27.9-8.8,40.2l52.8,91.2c-23.7,25.3-54.1,44.1-88.4,53.6L256,192h-0.9l-67.2,117.5
	c21.5,6.8,44.4,10.5,68.1,10.5c70.7,0,133.8-32.7,174.9-84.9c11-12.9,31.2-16,45-4.1c13.8,11.1,16,31.2,4.9,45
	C428.1,341.8,346.1,384,256,384c-35.4,0-69.4-6.4-100.7-18.1l-56.7,97.8c-4.7,8.1-11.7,14.7-20.1,18.9l-55.4,27.7
	c-5,2.5-10.8,2.2-15.6-0.7C2.9,506.7,0,501.5,0,496v-55.4c0-8.4,2.2-16.7,6.5-24.1l60-103.6c-12.8-11.3-24.6-23.6-35.3-36.9
	c-11.1-13.8-8.8-33.9,5-45c13.8-11.9,33.9-8.8,45,4.1c5.7,8,11.8,14.7,18.2,21l69.5-119.9c-5.7-12.3-8.8-25.9-8.8-40.2
	c0-53,42.1-96,96-96C309,0,352,43,352,96L352,96z M256,128c17.7,0,32-14.3,32-32c0-17.7-14.3-32-32-32s-32,14.3-32,32
	C224,113.7,238.3,128,256,128z M372.1,393.9c33.4-12.8,63.4-30.7,89.7-52.9l43.7,75.5c4.3,7.4,6.5,15.7,6.5,24.1V496
	c0,5.5-2.9,10.7-7.6,13.6c-4.7,2.9-10.6,3.2-15.6,0.7l-55.4-27.7c-8.4-4.2-15.3-10.8-20.1-18.9L372.1,393.9z"/>
</svg>
