<?xml version="1.0" encoding="utf-8"?>
<!-- Generator: Adobe Illustrator 26.0.3, SVG Export Plug-In . SVG Version: 6.00 Build 0)  -->
<svg version="1.1" id="Layer_1" xmlns="http://www.w3.org/2000/svg" xmlns:xlink="http://www.w3.org/1999/xlink" x="0px" y="0px"
	 viewBox="0 0 817.5 827.2" style="enable-background:new 0 0 817.5 827.2;" xml:space="preserve">
<style type="text/css">
	.st0{fill:#FF6C6C;}
	.st1{fill:#FFC600;}
</style>
<circle class="st0" cx="408.7" cy="413.6" r="408.7"/>
<path class="st1" d="M408.7,509.6c-16.5,0-33.1-5.4-47.2-16.4L152.7,330.8v226.8c0,26.5,21.5,48,48,48h416c26.5,0,48-21.5,48-48
	V330.8L455.9,493.3C441.8,504.2,425.2,509.6,408.7,509.6z M169,302.9L381.2,468c16.2,12.6,38.9,12.6,55.1,0l212.2-165.1
	c9.4-8,16.2-20.3,16.2-33.3c0-26.5-21.5-48-48-48h-416c-26.5,0-48,21.5-48,48C152.7,282.6,158.7,294.9,169,302.9z"/>
</svg>
