<?xml version="1.0" encoding="utf-8"?>
<!-- Generator: Adobe Illustrator 26.0.3, SVG Export Plug-In . SVG Version: 6.00 Build 0)  -->
<svg version="1.1" id="Layer_1" xmlns="http://www.w3.org/2000/svg" xmlns:xlink="http://www.w3.org/1999/xlink" x="0px" y="0px"
	 viewBox="0 0 817.5 827.2" style="enable-background:new 0 0 817.5 827.2;" xml:space="preserve">
<style type="text/css">
	.st0{fill:#FF6C6C;}
	.st1{fill:#FFC600;}
</style>
<circle class="st0" cx="408.7" cy="413.6" r="408.7"/>
<path class="st1" d="M285,637.6h-92.9V338.5H285V637.6z M238.5,297.7c-29.7,0-53.8-24.6-53.8-54.3c0-29.7,24.1-53.8,53.8-53.8
	c29.7,0,53.8,24.1,53.8,53.8C292.3,273.1,268.2,297.7,238.5,297.7z M632.6,637.6H540V492c0-34.7-0.7-79.2-48.3-79.2
	c-48.3,0-55.7,37.7-55.7,76.7v148.1h-92.8V338.5h89.1v40.8h1.3c12.4-23.5,42.7-48.3,87.9-48.3c94,0,111.3,61.9,111.3,142.3
	L632.6,637.6L632.6,637.6z"/>
</svg>
