<?xml version="1.0" encoding="utf-8"?>
<!-- Generator: Adobe Illustrator 26.0.3, SVG Export Plug-In . SVG Version: 6.00 Build 0)  -->
<svg version="1.1" id="Layer_1" xmlns="http://www.w3.org/2000/svg" xmlns:xlink="http://www.w3.org/1999/xlink" x="0px" y="0px"
	 viewBox="0 0 817.5 827.2" style="enable-background:new 0 0 817.5 827.2;" xml:space="preserve">
<style type="text/css">
	.st0{fill:#FF6C6C;}
	.st1{fill:#FFC600;}
</style>
<circle class="st0" cx="408.7" cy="413.6" r="408.7"/>
<path class="st1" d="M352.7,394.8c31.8-15.2,48.4-38.2,48.4-74c0-70.6-52.6-87.8-113.3-87.8H120.7v354.4h171.8
	c64.4,0,124.9-30.9,124.9-102.9C417.4,440,396.3,407.1,352.7,394.8L352.7,394.8z M198.6,293.5h73.1c28.1,0,53.4,7.9,53.4,40.5
	c0,30.1-19.7,42.2-47.5,42.2h-79C198.6,376.2,198.6,293.5,198.6,293.5z M281.9,527.2h-83.3v-97.6h84.9c34.3,0,56,14.3,56,50.6
	C339.5,516,313.6,527.2,281.9,527.2L281.9,527.2z M640.4,286.5H496.7v-34.9h143.7V286.5L640.4,286.5z M696.7,462.8
	c0-75.9-44.4-139.2-124.9-139.2c-78.2,0-131.3,58.8-131.3,135.8c0,79.9,50.3,134.7,131.3,134.7c61.3,0,101-27.6,120.1-86.3h-62.2
	c-6.7,21.9-34.3,33.5-55.7,33.5c-41.3,0-63-24.2-63-65.3h185.1C696.4,471.8,696.7,467.3,696.7,462.8z M511.1,431.6
	c2.3-33.7,24.7-54.8,58.5-54.8c35.4,0,53.2,20.8,56.2,54.8H511.1z"/>
</svg>
